<svg xmlns="http://www.w3.org/2000/svg" fill="none" viewBox="0 0 176 36" height="36" width="176">
<path fill="white" d="M88.4501 22.54C88.0951 23.1393 87.5926 23.6377 86.9905 23.9878C86.3883 24.3379 85.7066 24.528 85.0101 24.54H74.5201L72.4701 32.16C72.238 33.0066 71.739 33.7558 71.0472 34.2963C70.3554 34.8367 69.5078 35.1396 68.6301 35.16H61.4901C60.9849 35.167 60.4851 35.0549 60.0312 34.833C59.5773 34.611 59.182 34.2853 58.8773 33.8822C58.5726 33.4792 58.367 33.0101 58.2771 32.5128C58.1873 32.0156 58.2157 31.5042 58.3601 31.02L59.4301 27.02C58.6814 29.3742 57.2056 31.4304 55.2147 32.893C53.2238 34.3556 50.8205 35.1493 48.3501 35.16H0.640137L5.64014 16.69V16.28H5.73014L7.45013 9.83002C8.88013 4.52002 13.2301 0.660019 18.8401 0.660019H66.5501L65.8901 3.11002C66.2027 2.39122 66.7142 1.77677 67.3645 1.33913C68.0147 0.901499 68.7766 0.658929 69.5601 0.640022H90.2401C90.6658 0.632006 91.0887 0.709265 91.484 0.867241C91.8793 1.02522 92.239 1.26071 92.5419 1.55986C92.8447 1.85901 93.0847 2.21575 93.2475 2.60907C93.4104 3.00239 93.4929 3.42433 93.4901 3.85002C93.7649 3.15268 94.2403 2.55247 94.8562 2.12528C95.472 1.69809 96.2007 1.4631 96.9501 1.45002C97.5189 1.44541 98.0785 1.59394 98.5701 1.88002C101.21 3.45002 102.92 4.37002 106.13 3.52002C107.97 3.04002 109.61 2.14002 111.33 1.58002C113.039 0.962139 114.843 0.647412 116.66 0.650024C119.74 0.650024 122.9 1.31002 124.98 3.45002C128.107 1.62533 131.66 0.659381 135.28 0.650024C138.6 0.650024 141.83 1.52002 144.03 4.09002C144.874 5.11845 145.484 6.319 145.815 7.60762C146.147 8.89624 146.193 10.2418 145.95 11.55V11.44C145.95 11.44 145.95 11.35 145.95 11.3C148.33 3.52002 155.24 0.82002 162.82 0.52002H163C169.3 0.62002 175 2.99002 175.16 10.06C175.181 10.5978 175.089 11.134 174.889 11.6336C174.689 12.1333 174.386 12.5853 174 12.96C173.262 13.6978 172.264 14.1177 171.22 14.13H168C171.7 16.07 174.59 19.13 173.35 23.85V23.92V23.98C170.83 32.3 163.35 34.98 155.27 35.23C155.19 35.235 155.11 35.235 155.03 35.23C148.68 34.96 142.63 32.58 142.53 25.34C142.53 25.24 142.53 25.14 142.53 25.04L140.53 32.44C140.314 33.2271 139.848 33.9226 139.202 34.4221C138.557 34.9216 137.766 35.1981 136.95 35.21H127.08C126.601 35.2158 126.127 35.1095 125.696 34.8998C125.265 34.6902 124.889 34.3828 124.597 34.0021C124.306 33.6215 124.108 33.1781 124.018 32.7073C123.928 32.2364 123.949 31.7512 124.08 31.29L128.94 13.16C129.07 12.67 128.94 12.45 128.46 12.45C127.917 12.4748 127.394 12.66 126.956 12.9821C126.518 13.3043 126.185 13.749 126 14.26L121.15 32.35C120.936 33.1437 120.471 33.8465 119.823 34.3532C119.176 34.8598 118.382 35.1429 117.56 35.16H108C107.554 35.1173 107.123 34.9768 106.738 34.7486C106.352 34.5204 106.021 34.2101 105.769 33.8397C105.517 33.4693 105.35 33.0479 105.279 32.6055C105.209 32.1631 105.236 31.7105 105.36 31.28L110.23 13.12C110.36 12.62 110.23 12.41 109.74 12.41C109.205 12.454 108.695 12.6535 108.272 12.984C107.849 13.3145 107.532 13.7616 107.36 14.27L102.52 32.35C102.31 33.1281 101.86 33.8199 101.233 34.3264C100.606 34.8329 99.835 35.1282 99.0301 35.17H89.0001C88.5335 35.1577 88.0758 35.0395 87.6616 34.8243C87.2473 34.6091 86.8874 34.3026 86.6091 33.9279C86.3307 33.5532 86.1411 33.1201 86.0547 32.6614C85.9683 32.2027 85.9872 31.7303 86.1101 31.28L88.4501 22.54Z" clip-rule="evenodd" fill-rule="evenodd"></path>
<path fill="#030000" d="M95.1698 4.83991C95.2565 4.5228 95.4417 4.24146 95.6988 4.03654C95.9558 3.83162 96.2714 3.71373 96.5998 3.69991C96.7643 3.6981 96.9264 3.73948 97.0698 3.81991C98.7898 4.81991 101.67 6.91991 106.34 5.69991C108.34 5.16991 110.28 4.17991 111.73 3.69991C113.195 3.16876 114.741 2.89801 116.3 2.89991C120.3 2.89991 122.89 4.09991 124.04 6.48991C127.202 4.18498 131.007 2.92943 134.92 2.89991C138.12 2.89991 140.47 3.80991 142 5.58991C143.53 7.36991 143.88 9.94991 142.95 13.4499L138 31.8199C137.915 32.1324 137.734 32.4103 137.483 32.6148C137.232 32.8192 136.923 32.9399 136.6 32.9599H126.73C126.589 32.9744 126.448 32.9532 126.317 32.8984C126.187 32.8436 126.073 32.7568 125.985 32.6462C125.898 32.5356 125.839 32.4046 125.816 32.2654C125.792 32.1262 125.804 31.9833 125.85 31.8499L130.71 13.7199C130.858 13.3094 130.903 12.8684 130.838 12.4366C130.774 12.0048 130.603 11.5959 130.341 11.2466C130.079 10.8973 129.734 10.6188 129.338 10.4361C128.941 10.2533 128.506 10.1722 128.07 10.1999C127.043 10.2488 126.056 10.6129 125.244 11.2428C124.431 11.8727 123.833 12.7376 123.53 13.7199L118.68 31.8099C118.592 32.1274 118.407 32.4092 118.15 32.6156C117.894 32.822 117.579 32.9424 117.25 32.9599H107.94C107.814 32.9532 107.691 32.9172 107.582 32.8548C107.472 32.7923 107.379 32.7052 107.309 32.6004C107.239 32.4955 107.195 32.3758 107.179 32.2507C107.164 32.1256 107.178 31.9987 107.22 31.8799L112.09 13.7199C112.236 13.3086 112.278 12.8674 112.212 12.4359C112.146 12.0043 111.974 11.5958 111.712 11.2471C111.449 10.8983 111.104 10.62 110.708 10.4373C110.311 10.2546 109.876 10.173 109.44 10.1999C108.415 10.2508 107.43 10.6159 106.62 11.2456C105.809 11.8753 105.212 12.7392 104.91 13.7199L100.06 31.7899C99.9755 32.1073 99.7944 32.3905 99.5417 32.6002C99.289 32.8098 98.9773 32.9356 98.6498 32.9599H88.7498C88.617 32.9645 88.4851 32.9372 88.365 32.8801C88.245 32.8231 88.1404 32.7381 88.0601 32.6323C87.9797 32.5265 87.9259 32.4029 87.9033 32.272C87.8806 32.1411 87.8897 32.0066 87.9298 31.8799L95.1698 4.83991Z" clip-rule="evenodd" fill-rule="evenodd"></path>
<path fill="#030000" d="M68.2898 32.9598H61.1498C60.9855 32.9691 60.8214 32.9377 60.6721 32.8684C60.5228 32.7991 60.3929 32.694 60.294 32.5624C60.1951 32.4308 60.1301 32.2769 60.105 32.1142C60.0799 31.9515 60.0953 31.7851 60.1498 31.6298L67.4798 4.25983C67.5917 3.8919 67.8137 3.56713 68.1159 3.32931C68.4181 3.09149 68.7859 2.95206 69.1698 2.92982H89.8499C90.0142 2.92051 90.1783 2.95191 90.3276 3.02124C90.4769 3.09057 90.6068 3.19569 90.7057 3.32726C90.8046 3.45883 90.8696 3.61279 90.8947 3.77547C90.9198 3.93816 90.9044 4.10453 90.8499 4.25983L89.6899 8.61983C89.5797 8.98961 89.3584 9.31655 89.0561 9.55627C88.7538 9.796 88.385 9.93688 87.9998 9.95982H77.1198C76.7359 9.98206 76.3681 10.1215 76.0659 10.3593C75.7637 10.5971 75.5417 10.9219 75.4298 11.2898L74.6998 13.9598C74.6453 14.1151 74.6299 14.2815 74.655 14.4442C74.6801 14.6069 74.7451 14.7608 74.844 14.8924C74.9429 15.024 75.0728 15.1291 75.2221 15.1984C75.3714 15.2677 75.5355 15.2991 75.6998 15.2898H86.5898C86.7542 15.2805 86.9183 15.3119 87.0676 15.3812C87.2169 15.4506 87.3468 15.5557 87.4457 15.6873C87.5446 15.8188 87.6095 15.9728 87.6347 16.1355C87.6598 16.2981 87.6444 16.4645 87.5898 16.6198L86.3598 20.9598C86.2511 21.3277 86.0314 21.6529 85.7306 21.891C85.4299 22.1291 85.0628 22.2684 84.6798 22.2898H73.7898C73.406 22.3083 73.0376 22.4465 72.7363 22.6851C72.435 22.9236 72.2159 23.2505 72.1098 23.6198L69.9998 31.5998C69.892 31.9764 69.6693 32.3099 69.3627 32.5537C69.0561 32.7976 68.681 32.9395 68.2898 32.9598Z" clip-rule="evenodd" fill-rule="evenodd"></path>
<path fill="#030000" d="M170.89 11.85H164.57C164.34 11.8693 164.112 11.8036 163.927 11.6653C163.743 11.5271 163.616 11.3259 163.57 11.1C163.527 10.8608 163.429 10.635 163.283 10.4405C163.137 10.246 162.948 10.0884 162.73 9.98002C162.107 9.65483 161.429 9.4512 160.73 9.38002H160.51C158.39 9.50002 157.23 10.06 157.04 11.06C157.045 11.0797 157.045 11.1003 157.04 11.12C156.77 12.26 158.31 13.3 161.67 14.22C168.58 15.99 172.03 19.09 170.93 23.22C169.05 29.4467 163.717 32.67 154.93 32.89H154.84C148 32.6034 144.547 30.04 144.48 25.2C144.483 24.9805 144.531 24.7639 144.623 24.5642C144.714 24.3644 144.846 24.1859 145.01 24.04C145.166 23.8754 145.354 23.7437 145.561 23.6527C145.769 23.5617 145.993 23.5132 146.22 23.51H152.65C152.894 23.4906 153.135 23.5678 153.322 23.725C153.509 23.8822 153.627 24.1067 153.65 24.35C153.671 24.6482 153.762 24.9373 153.915 25.1942C154.068 25.4511 154.278 25.6689 154.53 25.83L154.61 25.89C155.348 26.3398 156.208 26.5462 157.07 26.48C159.15 26.48 160.55 26.05 161.27 25.18C161.484 24.973 161.618 24.698 161.651 24.4024C161.684 24.1067 161.613 23.8089 161.45 23.56C160.883 22.84 159.347 22.1434 156.84 21.47C150.04 19.71 146.68 16.47 147.84 11.97C149.607 6.15002 154.533 3.08335 162.62 2.77002H162.69C169.21 2.87669 172.543 5.33336 172.69 10.14C172.689 10.3619 172.643 10.5813 172.553 10.7844C172.464 10.9874 172.333 11.1698 172.17 11.32C172.003 11.4899 171.804 11.6244 171.584 11.7155C171.364 11.8065 171.128 11.8523 170.89 11.85Z" clip-rule="evenodd" fill-rule="evenodd"></path>
<path fill="#EC8000" d="M18.4902 2.95996C13.9102 2.95996 10.4202 6.10996 9.25024 10.47L7.40024 17.37H59.4002L63.2802 2.95996H58.3702C55.2002 3.54996 51.0902 5.95996 49.5402 9.32996L46.6802 16.17H42.1302C42.8502 14.45 44.0402 11.59 44.6302 10.17C44.8602 9.62996 45.0602 9.06996 45.3002 8.53996C46.6902 5.42996 51.6602 2.96996 53.8102 2.96996H48.3502C45.1902 3.59996 41.1502 6.02996 39.6202 9.31996L36.7502 16.18H32.2002C32.9202 14.46 34.1102 11.58 34.7202 10.18C34.9402 9.63996 35.1402 9.07996 35.3802 8.54996C36.7502 5.46996 41.3802 2.99996 43.7902 2.99996H38.4302C35.2702 3.62996 31.2402 6.05996 29.7002 9.34996L26.8202 16.21H22.2602C22.9902 14.49 24.2002 11.61 24.8002 10.21C25.0202 9.66996 25.2202 9.10996 25.4602 8.57996C26.7502 5.67996 31.2602 3.02996 33.8702 3.02996L18.4902 2.95996ZM7.00024 18.9L3.24023 32.9H20.6402C22.3295 32.9 24.0042 32.5881 25.5802 31.98C26.9384 32.5124 28.3734 32.8231 29.8302 32.9H20.6402C17.0304 32.8973 13.5686 31.4649 11.0123 28.9161C8.45604 26.3674 7.01346 22.9098 7.00024 19.3V18.9ZM31.2902 32.9C33.9141 32.758 36.4414 31.8629 38.5696 30.3217C40.6979 28.7805 42.3368 26.6586 43.2902 24.21C43.4502 23.8 43.5902 23.46 43.7602 23.06L45.1802 19.69H40.6002C40.0702 20.95 39.6002 22.15 39.1102 23.23C39.0102 23.49 38.9002 23.74 38.7802 24C37.879 25.957 36.4351 27.6144 34.62 28.7755C32.8049 29.9365 30.6949 30.5523 28.5402 30.55H28.2902C30.5801 28.9892 32.344 26.772 33.3502 24.19C33.5102 23.78 33.6502 23.44 33.8202 23.04L35.2302 19.69H30.6702C30.1402 20.94 29.6702 22.14 29.2002 23.21L28.8702 23.98C27.792 26.3137 25.949 28.2092 23.6463 29.3524C21.3437 30.4957 18.7196 30.818 16.2087 30.2662C13.6979 29.7143 11.4508 28.3213 9.8398 26.3178C8.22877 24.3144 7.35043 21.8208 7.35023 19.25C7.35023 19 7.35023 18.74 7.35023 18.49H59.1002L57.2502 25.39C56.0802 29.75 52.5902 32.9 48.0102 32.9H31.2902ZM42.8002 7.64996C42.9671 7.65077 43.1319 7.68607 43.2845 7.75365C43.437 7.82122 43.5739 7.9196 43.6866 8.04263C43.7993 8.16565 43.8853 8.31065 43.9393 8.46851C43.9933 8.62638 44.014 8.7937 44.0002 8.95996C44.0002 9.27822 43.8738 9.58344 43.6488 9.80849C43.4237 10.0335 43.1185 10.16 42.8002 10.16C42.482 10.16 42.1768 10.0335 41.9517 9.80849C41.7267 9.58344 41.6002 9.27822 41.6002 8.95996C41.6002 8.64077 41.7263 8.33451 41.9511 8.10788C42.1758 7.88125 42.4811 7.7526 42.8002 7.74996V7.64996ZM32.8002 7.64996C32.9671 7.65077 33.1319 7.68607 33.2845 7.75365C33.437 7.82122 33.5739 7.9196 33.6866 8.04263C33.7993 8.16565 33.8853 8.31065 33.9393 8.46851C33.9933 8.62638 34.014 8.7937 34.0002 8.95996C34.0002 9.27822 33.8738 9.58344 33.6488 9.80849C33.4237 10.0335 33.1185 10.16 32.8002 10.16C32.482 10.16 32.1768 10.0335 31.9517 9.80849C31.7267 9.58344 31.6002 9.27822 31.6002 8.95996C31.6002 8.64077 31.7263 8.33451 31.9511 8.10788C32.1759 7.88125 32.4811 7.7526 32.8002 7.74996V7.64996ZM25.3302 19.65L24.4602 21.73C23.8879 23.1623 22.8455 24.3574 21.5043 25.1193C20.1631 25.8811 18.6028 26.1643 17.0794 25.9224C15.5561 25.6806 14.1602 24.928 13.1209 23.7882C12.0817 22.6484 11.4608 21.1891 11.3602 19.65H15.5902C15.6939 20.2513 16.0066 20.7967 16.4731 21.1901C16.9396 21.5834 17.53 21.7994 18.1402 21.8C19.7202 21.8 20.2802 20.8 20.7702 19.65H25.3302Z" clip-rule="evenodd" fill-rule="evenodd"></path>
</svg>
